<svg width="24" height="24" viewBox="0 0 24 24" fill="none" xmlns="http://www.w3.org/2000/svg">
<circle cx="12" cy="12" r="10" fill="#3EA840"/>
<path d="M9.75 13.4H14.25C14.3775 13.4 14.4844 13.3569 14.5706 13.2706C14.6569 13.1844 14.7 13.0775 14.7 12.95C14.7 12.8225 14.6569 12.7156 14.5706 12.6294C14.4844 12.5431 14.3775 12.5 14.25 12.5H9.75C9.6225 12.5 9.51562 12.5431 9.42938 12.6294C9.34313 12.7156 9.3 12.8225 9.3 12.95C9.3 13.0775 9.34313 13.1844 9.42938 13.2706C9.51562 13.3569 9.6225 13.4 9.75 13.4ZM9.75 12.05H14.25C14.3775 12.05 14.4844 12.0069 14.5706 11.9206C14.6569 11.8344 14.7 11.7275 14.7 11.6C14.7 11.4725 14.6569 11.3656 14.5706 11.2794C14.4844 11.1931 14.3775 11.15 14.25 11.15H9.75C9.6225 11.15 9.51562 11.1931 9.42938 11.2794C9.34313 11.3656 9.3 11.4725 9.3 11.6C9.3 11.7275 9.34313 11.8344 9.42938 11.9206C9.51562 12.0069 9.6225 12.05 9.75 12.05ZM9.75 10.7H14.25C14.3775 10.7 14.4844 10.6569 14.5706 10.5706C14.6569 10.4844 14.7 10.3775 14.7 10.25C14.7 10.1225 14.6569 10.0156 14.5706 9.92937C14.4844 9.84312 14.3775 9.8 14.25 9.8H9.75C9.6225 9.8 9.51562 9.84312 9.42938 9.92937C9.34313 10.0156 9.3 10.1225 9.3 10.25C9.3 10.3775 9.34313 10.4844 9.42938 10.5706C9.51562 10.6569 9.6225 10.7 9.75 10.7ZM8.4 15.2C8.1525 15.2 7.94063 15.1119 7.76438 14.9356C7.58812 14.7594 7.5 14.5475 7.5 14.3V8.9C7.5 8.6525 7.58812 8.44062 7.76438 8.26438C7.94063 8.08812 8.1525 8 8.4 8H15.6C15.8475 8 16.0594 8.08812 16.2356 8.26438C16.4119 8.44062 16.5 8.6525 16.5 8.9V15.9087C16.5 16.1112 16.4081 16.2519 16.2244 16.3306C16.0406 16.4094 15.8775 16.3775 15.735 16.235L14.7 15.2H8.4Z" fill="white"/>
</svg>
