<svg width="24" height="24" viewBox="0 0 24 24" fill="none" xmlns="http://www.w3.org/2000/svg">
<path d="M3 20V18H15V20H3ZM16 13C14.6167 13 13.4375 12.5125 12.4625 11.5375C11.4875 10.5625 11 9.38333 11 8C11 6.61667 11.4875 5.4375 12.4625 4.4625C13.4375 3.4875 14.6167 3 16 3C17.3833 3 18.5625 3.4875 19.5375 4.4625C20.5125 5.4375 21 6.61667 21 8C21 9.38333 20.5125 10.5625 19.5375 11.5375C18.5625 12.5125 17.3833 13 16 13ZM3 12V10H9.3C9.41667 10.3667 9.55 10.7167 9.7 11.05C9.85 11.3833 10.0333 11.7 10.25 12H3ZM3 16V14H12.4C12.7833 14.2333 13.1917 14.4292 13.625 14.5875C14.0583 14.7458 14.5167 14.8583 15 14.925V16H3ZM15.5 11H16.5V7H15.5V11ZM16 6C16.1333 6 16.25 5.95 16.35 5.85C16.45 5.75 16.5 5.63333 16.5 5.5C16.5 5.36667 16.45 5.25 16.35 5.15C16.25 5.05 16.1333 5 16 5C15.8667 5 15.75 5.05 15.65 5.15C15.55 5.25 15.5 5.36667 15.5 5.5C15.5 5.63333 15.55 5.75 15.65 5.85C15.75 5.95 15.8667 6 16 6Z" fill="#0F52A0"/>
</svg>
