<svg width="24" height="24" viewBox="0 0 24 24" fill="none" xmlns="http://www.w3.org/2000/svg">
<g clip-path="url(#clip0_35_27)">
<path d="M12 22C17.5228 22 22 17.5228 22 12C22 6.47715 17.5228 2 12 2C6.47715 2 2 6.47715 2 12C2 17.5228 6.47715 22 12 22Z" fill="#7E7E7B"/>
<path fill-rule="evenodd" clip-rule="evenodd" d="M16.8706 18.0235H7.12946C6.98828 18.0235 6.89417 17.9059 6.89417 17.7647V12.3059C6.89417 12.1647 6.98828 12.0706 7.12946 12.0706H16.8706C17.0118 12.0706 17.1059 12.1647 17.1059 12.3059V17.7647C17.1059 17.9059 17.0118 18.0235 16.8706 18.0235ZM15.3412 16.0941H8.65887C8.54122 16.0941 8.42358 16 8.42358 15.8823V14.2117C8.42358 14.0941 8.54122 14 8.65887 14H15.3412C15.4589 14 15.5765 14.0941 15.5765 14.2117V15.8823C15.5765 16 15.4589 16.0941 15.3412 16.0941ZM8.77652 15.7647H15.2236V14.3294H8.77652V15.7647Z" fill="white"/>
<path fill-rule="evenodd" clip-rule="evenodd" d="M6.89417 11.7882V11.3411C6.89417 11.2705 6.91769 11.2235 6.96475 11.1764L8.98828 9.88229C9.03534 9.85876 9.05887 9.85876 9.0824 9.85876H9.45887V10.6117C9.45887 10.8705 9.69416 11.1058 9.97652 11.1058H14.0236C14.3059 11.1058 14.5412 10.8705 14.5412 10.6117V9.85876H14.9177C14.9412 9.85876 14.9883 9.85876 15.0118 9.88229L17.0353 11.1999C17.0824 11.2235 17.1059 11.2941 17.1059 11.3411V11.7882C17.0353 11.7646 16.9648 11.7411 16.8706 11.7411H7.12946C7.03534 11.7411 6.96475 11.7646 6.89417 11.7882Z" fill="white"/>
<path fill-rule="evenodd" clip-rule="evenodd" d="M14.0236 10.7764H9.97657C9.88245 10.7764 9.78833 10.7059 9.78833 10.6117V6.35291C9.78833 6.14115 9.95304 5.97644 10.1648 5.97644H13.8354C14.0472 5.97644 14.2119 6.14115 14.2119 6.35291V10.6117C14.2119 10.7059 14.1177 10.7764 14.0236 10.7764ZM13.106 9.64703C13.0589 9.64703 13.0119 9.6235 12.9883 9.59997L12.0001 8.61173L11.0119 9.59997C10.9883 9.6235 10.9413 9.64703 10.8942 9.64703C10.8707 9.64703 10.8001 9.6235 10.7766 9.59997C10.706 9.52938 10.706 9.43526 10.7766 9.36468L11.7648 8.37644L10.7766 7.38821C10.706 7.34115 10.706 7.2235 10.7766 7.15291C10.8472 7.08232 10.9648 7.08232 11.0354 7.15291L12.0001 8.14115L12.9883 7.15291C13.0589 7.08232 13.153 7.08232 13.2236 7.15291C13.2942 7.2235 13.2942 7.34115 13.2236 7.38821L12.2354 8.37644L13.2236 9.36468C13.2942 9.43526 13.2942 9.52938 13.2236 9.59997C13.2001 9.6235 13.153 9.64703 13.106 9.64703Z" fill="white"/>
</g>
<defs>
<clipPath id="clip0_35_27">
<rect width="20" height="20" fill="white" transform="translate(2 2)"/>
</clipPath>
</defs>
</svg>
