<svg width="512" height="512" viewBox="0 0 512 512" fill="none" xmlns="http://www.w3.org/2000/svg">
<path fill-rule="evenodd" clip-rule="evenodd" d="M154.667 163.115C130.048 156.139 112 133.504 112 106.667C112 74.2827 138.283 48 170.667 48C203.051 48 229.333 74.2827 229.333 106.667C229.333 133.504 211.285 156.139 186.667 163.115V284.075C192.597 281.045 199.125 278.976 206.059 278.123C234.517 274.56 273.515 269.696 301.973 266.133C315.328 264.469 325.333 253.12 325.333 239.659V227.115C300.715 220.139 282.667 197.504 282.667 170.667C282.667 138.283 308.949 112 341.333 112C373.717 112 400 138.283 400 170.667C400 197.504 381.952 220.139 357.333 227.115V239.659C357.333 269.248 335.296 294.208 305.941 297.877C277.483 301.44 238.485 306.304 210.027 309.867C196.672 311.531 186.667 322.88 186.667 336.341V348.885C211.285 355.861 229.333 378.496 229.333 405.333C229.333 437.717 203.051 464 170.667 464C138.283 464 112 437.717 112 405.333C112 378.496 130.048 355.861 154.667 348.885V163.115ZM170.667 378.667C185.387 378.667 197.333 390.613 197.333 405.333C197.333 420.053 185.387 432 170.667 432C155.947 432 144 420.053 144 405.333C144 390.613 155.947 378.667 170.667 378.667ZM341.333 144C356.053 144 368 155.947 368 170.667C368 185.387 356.053 197.333 341.333 197.333C326.613 197.333 314.667 185.387 314.667 170.667C314.667 155.947 326.613 144 341.333 144ZM170.667 80C185.387 80 197.333 91.9467 197.333 106.667C197.333 121.387 185.387 133.333 170.667 133.333C155.947 133.333 144 121.387 144 106.667C144 91.9467 155.947 80 170.667 80Z" fill="white"/>
</svg>
